<svg width="48" height="48" viewBox="0 0 48 48" fill="none" xmlns="http://www.w3.org/2000/svg">
<rect width="48" height="48" rx="14" fill="#003AF6"/>
<path d="M34.7143 12H28.2857C27.5756 12 27 12.5756 27 13.2857V19.7143C27 20.4244 27.5756 21 28.2857 21H34.7143C35.4244 21 36 20.4244 36 19.7143V13.2857C36 12.5756 35.4244 12 34.7143 12Z" stroke="white" stroke-width="3" stroke-linecap="round" stroke-linejoin="round"/>
<path d="M21.5 36V20.2143C21.5 19.8922 21.357 19.5834 21.1025 19.3557C20.848 19.1279 20.5028 19 20.1429 19H13.3571C12.9972 19 12.652 19.1279 12.3975 19.3557C12.143 19.5834 12 19.8922 12 20.2143V34.7857C12 35.1078 12.143 35.4166 12.3975 35.6443C12.652 35.8721 12.9972 36 13.3571 36H29.6429C30.0028 36 30.348 35.8721 30.6025 35.6443C30.857 35.4166 31 35.1078 31 34.7857V28.7143C31 28.3922 30.857 28.0834 30.6025 27.8557C30.348 27.6279 30.0028 27.5 29.6429 27.5H12" stroke="white" stroke-width="3" stroke-linecap="round" stroke-linejoin="round"/>
</svg>
